<?xml version="1.0" encoding="utf-8"?>
<!-- Generator: Adobe Illustrator 16.0.0, SVG Export Plug-In . SVG Version: 6.00 Build 0)  -->
<!DOCTYPE svg PUBLIC "-//W3C//DTD SVG 1.1//EN" "http://www.w3.org/Graphics/SVG/1.1/DTD/svg11.dtd">
<svg version="1.1" id="Layer_1" xmlns="http://www.w3.org/2000/svg" xmlns:xlink="http://www.w3.org/1999/xlink" x="0px" y="0px"
	 width="800px" height="600px" viewBox="0 0 800 600" enable-background="new 0 0 800 600" xml:space="preserve">
<g>
	<g>
		<path d="M334.767,39.978c-23.306-15.154-48.672-1.727-65.472,16.548c-8.505,9.252-14.911,19.987-18.402,32.078
			c-3.457,11.97-3.718,24.728-4.113,37.088c-2.071,64.875-3.607,129.772-0.804,194.661c0.973,22.527,2.463,45.03,4.301,67.503
			c0.928,11.347,2.355,22.702,2.828,34.078c0.452,10.896-0.317,21.823-0.755,32.707c-0.778,19.35-1.146,41.314,9.621,58.267
			c9.107,14.34,24.974,24.782,41.099,29.467c2.805,0.814,5.741-2.561,3.953-5.142c-5.245-7.573-1.492-19.272,1.001-27.192
			c3.007-9.551,7.36-18.983,12.999-27.274c-1.596,0.419-3.192,0.837-4.789,1.256c11.838,5.437,17.089,17.965,21.272,29.518
			c4.162,11.493,7.082,24.251,14.472,34.227c1.739,2.348,5.494,2.304,6.397-0.836c3.342-11.623,1.532-24.69,3.152-36.622
			c1.281-9.429,6.405-28.736,19.904-22.798c5.75,2.529,10.366,7.41,14.49,11.997c5.57,6.192,10.357,13.073,14.952,20.003
			c7.415,11.186,13.713,23.066,21.105,34.256c1.33,2.013,4.843,2.524,6.045,0c2.436-5.116,3.481-10.886,4.729-16.374
			c1.88-8.28,3.671-16.582,6.039-24.741c1.764-6.072,3.753-13.283,8.247-17.974c3.133-3.269,7.532-0.52,10.348,1.773
			c11.405,9.291,18.774,24.297,25.393,37.1c5.913,11.438,11.48,23.253,15.848,35.38c1.071,2.975,6.035,3.685,6.75,0
			c4.145-21.358,2.766-46.128,14.647-65.164c-1.597,0.419-3.192,0.837-4.789,1.256c12.622,7.565,21.994,17.997,29.612,30.474
			c7.448,12.2,13.358,25.252,21.132,37.271c1.537,2.376,5.743,2.302,6.397-0.836c13.104-62.854,18.005-127.004,19.998-191.077
			c0.995-31.996,2.314-64.158-1.086-96.051c-3.006-28.181-7.896-57.72-18.876-83.999c-9.147-21.894-23.271-40.969-39.609-58.022
			c-19.121-19.957-40.337-37.187-64.272-51.035c-12.254-7.09-24.902-13.479-37.374-20.171c-12.786-6.862-24.935-14.779-37.66-21.727
			c-24.097-13.157-49.85-19.845-76.284-26.403c-10.405-2.582-21.659-4.923-32.374-3.214c-4.759,0.759-8.509,3.567-10.733,7.809
			c-2.918,5.567-1.321,12.827-6.871,16.936c-3.584,2.654-0.1,8.734,3.533,6.044c4.031-2.984,6.325-6.506,7.512-11.38
			c1.142-4.687,1.071-10.429,6.485-12.206c8.797-2.886,20.27,0.334,28.958,2.367c26.469,6.194,52.135,13.167,76.24,26.091
			c12.771,6.847,24.892,14.843,37.66,21.726c12.463,6.719,25.087,13.131,37.375,20.171c24.352,13.951,45.62,31.751,64.897,52.083
			c16.814,17.735,30.584,38.013,38.997,61.05c4.822,13.204,7.642,27.126,10.348,40.887c3.131,15.92,5.249,32.018,6.4,48.201
			c2.27,31.902,0.41,64.35-0.798,96.274c-1.219,32.187-3.335,64.347-6.921,96.36c-2.91,25.979-6.96,51.829-12.296,77.422
			c2.133-0.278,4.265-0.558,6.397-0.836c-8.027-12.41-14.176-25.876-21.87-38.478c-7.946-13.016-18.267-23.914-31.386-31.778
			c-1.672-1.002-3.788-0.347-4.789,1.256c-12.291,19.692-11.071,44.774-15.353,66.836c2.25,0,4.5,0,6.75,0
			c-4.698-13.044-10.703-25.734-17.062-38.036c-7.189-13.908-15.497-29.905-28.391-39.401
			c-27.501-20.253-31.968,48.05-37.944,60.602c2.015,0,4.03,0,6.045,0c-8.285-12.539-15.335-25.838-23.807-38.273
			c-8.049-11.816-18.064-26.696-32.19-31.681c-14.39-5.077-23.419,10.354-26.135,21.98c-1.838,7.869-2.241,16.074-2.601,24.118
			c-0.274,6.132,0.047,12.739-1.665,18.691c2.132-0.278,4.265-0.558,6.397-0.836c-14.937-20.162-12.551-54.449-38.255-66.256
			c-1.829-0.84-3.635-0.44-4.789,1.256c-6.473,9.519-11.18,20.481-14.482,31.475c-2.736,9.108-5.386,21.585,0.482,30.059
			c1.317-1.714,2.635-3.428,3.953-5.142c-12.304-3.574-23.356-10.606-32.049-19.989c-10.009-10.802-12.728-24.987-13.585-39.254
			c-0.909-15.123,0.686-30.298,0.904-45.419c0.227-15.68-1.976-31.358-3.237-46.966c-5.243-64.888-6.07-129.85-5.146-194.915
			c0.269-18.94,1.045-37.845,1.746-56.771c0.556-15.009,0.424-30.18,4.924-44.664c8.486-27.312,43.466-60.664,72.747-41.625
			C335.03,48.491,338.535,42.428,334.767,39.978L334.767,39.978z"/>
	</g>
</g>
<g>
	<g>
		<path d="M315.5,127c0.048,15.463,1.326,37.645,15.376,47.44c7.594,5.293,17.975,5.192,26.269,1.671
			c8.602-3.652,12.422-13.042,13.507-21.672c1.193-9.487-1.256-20.165-6.941-27.869c-5.93-8.037-15.235-12.363-24.625-14.958
			c-8.039-2.222-18.243-3.95-24.923,2.339c-5.382,5.066-4.66,13.793-3.511,20.351c2.625,14.975,9.418,30.102,22.195,38.854
			c13.67,9.364,32.257,10.232,46.919,2.867c4.035-2.026,0.489-8.064-3.533-6.044c-10.019,5.032-21.328,5.027-31.77,1.307
			c-10.689-3.809-17.743-11.996-21.922-22.236c-3.173-7.776-6.317-16.481-5.59-25.006c0.875-10.273,13.632-7.383,20.273-5.682
			c10.163,2.604,19.315,7.819,23.918,17.577c4.111,8.715,4.009,21.101-1.384,29.187c-5.344,8.011-19.152,8.573-26.119,2.615
			c-6.738-5.762-8.815-15.926-10.088-24.246c-0.833-5.439-1.034-10.999-1.051-16.493C322.486,122.487,315.486,122.485,315.5,127
			L315.5,127z"/>
	</g>
</g>
<g>
	<g>
		<path d="M473,137.5c-10.798,0.943-24.102-3.092-33.36,4.282c-7.269,5.789-12.683,14.396-16.59,22.708
			c-3.185,6.775-6.414,15.965-2.181,22.976c3.5,5.795,10.704,8.652,16.871,10.473c15.049,4.442,34.25,4.819,49.073-0.723
			c17.544-6.559,13.757-27.349,7.188-40.913c-6.097-12.588-16.82-26.184-30.101-31.614c-14.004-5.726-34.023-6.881-45.375,4.836
			c-3.141,3.242,1.804,8.197,4.949,4.95c7.99-8.247,21.274-7.814,31.631-5.34c9.579,2.288,16.573,8.199,22.872,15.52
			c7.934,9.222,25.593,38.329,6.975,45.81c-14.539,5.842-34.369,4.76-48.898-0.431c-6.979-2.493-11.306-6.409-9.679-14.138
			c2.014-9.566,8.168-19.02,14.788-26.049c8.244-8.754,21.143-4.412,31.837-5.347C477.461,144.11,477.499,137.107,473,137.5
			L473,137.5z"/>
	</g>
</g>
</svg>
